<svg width="55" height="18" viewBox="0 0 55 18" fill="none" xmlns="http://www.w3.org/2000/svg">
<path d="M3.03 5.00009H4.08L2.652 0.800116H1.428L0 5.00009H1.05L1.26 4.34009H2.82L3.03 5.00009ZM1.548 3.4401L2.04 1.89811L2.532 3.4401H1.548Z" fill="white"/>
<path d="M6.20494 2.00011L5.58094 3.90209L4.95694 2.00011H3.96094L5.07094 5.00009H6.09094L7.20094 2.00011H6.20494Z" fill="white"/>
<path d="M9.59198 2.00011V2.28211C9.39398 2.05411 9.09998 1.91611 8.69798 1.91611C7.91198 1.91611 7.26398 2.6061 7.26398 3.5001C7.26398 4.39409 7.91198 5.08409 8.69798 5.08409C9.09998 5.08409 9.39398 4.94609 9.59198 4.71809V5.00009H10.492V2.00011H9.59198ZM8.87799 4.23209C8.46398 4.23209 8.16398 3.95009 8.16398 3.5001C8.16398 3.0501 8.46398 2.7681 8.87799 2.7681C9.29199 2.7681 9.59198 3.0501 9.59198 3.5001C9.59198 3.95009 9.29199 4.23209 8.87799 4.23209Z" fill="white"/>
<path d="M11.1523 5.00009H12.0523V0.620117H11.1523V5.00009Z" fill="white"/>
<path d="M13.1609 1.73611C13.4549 1.73611 13.7009 1.49011 13.7009 1.19611C13.7009 0.902115 13.4549 0.656117 13.1609 0.656117C12.8669 0.656117 12.6209 0.902115 12.6209 1.19611C12.6209 1.49011 12.8669 1.73611 13.1609 1.73611ZM12.7109 5.00009H13.6109V2.00011H12.7109V5.00009Z" fill="white"/>
<path d="M16.0635 1.91611C15.6615 1.91611 15.3675 2.05411 15.1695 2.28211V0.800116H14.2695V5.00009H15.1695V4.71809C15.3675 4.94609 15.6615 5.08409 16.0635 5.08409C16.8495 5.08409 17.4975 4.39409 17.4975 3.5001C17.4975 2.6061 16.8495 1.91611 16.0635 1.91611ZM15.8835 4.23209C15.4695 4.23209 15.1695 3.95009 15.1695 3.5001C15.1695 3.0501 15.4695 2.7681 15.8835 2.7681C16.2975 2.7681 16.5975 3.0501 16.5975 3.5001C16.5975 3.95009 16.2975 4.23209 15.8835 4.23209Z" fill="white"/>
<path d="M18.0077 5.00009H18.9077V0.620117H18.0077V5.00009Z" fill="white"/>
<path d="M20.3703 3.8601H22.5003C22.5243 3.7461 22.5363 3.6261 22.5363 3.5001C22.5363 2.5941 21.8883 1.91611 21.0123 1.91611C20.0643 1.91611 19.4163 2.6061 19.4163 3.5001C19.4163 4.39409 20.0523 5.08409 21.0783 5.08409C21.6483 5.08409 22.0923 4.87409 22.3863 4.46609L21.6663 4.05209C21.5463 4.18409 21.3363 4.28009 21.0903 4.28009C20.7603 4.28009 20.4843 4.17209 20.3703 3.8601ZM20.3523 3.1881C20.4363 2.8821 20.6643 2.7141 21.0063 2.7141C21.2763 2.7141 21.5463 2.8401 21.6423 3.1881H20.3523Z" fill="white"/>
<path d="M25.9868 5.08409C26.8688 5.08409 27.5768 4.39409 27.5768 3.5001C27.5768 2.6061 26.8688 1.91611 25.9868 1.91611C25.1048 1.91611 24.3968 2.6061 24.3968 3.5001C24.3968 4.39409 25.1048 5.08409 25.9868 5.08409ZM25.9868 4.20809C25.5968 4.20809 25.2968 3.92609 25.2968 3.5001C25.2968 3.0741 25.5968 2.7921 25.9868 2.7921C26.3768 2.7921 26.6768 3.0741 26.6768 3.5001C26.6768 3.92609 26.3768 4.20809 25.9868 4.20809Z" fill="white"/>
<path d="M29.8439 1.91611C29.4479 1.91611 29.1479 2.06011 28.9859 2.28211V2.00011H28.0859V5.00009H28.9859V3.3621C28.9859 2.9361 29.2139 2.7441 29.5439 2.7441C29.8319 2.7441 30.0659 2.9181 30.0659 3.2901V5.00009H30.9659V3.1581C30.9659 2.34811 30.4499 1.91611 29.8439 1.91611Z" fill="white"/>
<path d="M34.8419 2.8641V2.00011H34.2239V1.16011L33.3239 1.43011V2.00011H32.8439V2.8641H33.3239V3.92609C33.3239 4.76609 33.6659 5.12009 34.8419 5.00009V4.18409C34.4459 4.20809 34.2239 4.18409 34.2239 3.92609V2.8641H34.8419Z" fill="white"/>
<path d="M37.1095 1.91611C36.7135 1.91611 36.4135 2.06011 36.2515 2.28211V0.800116H35.3515V5.00009H36.2515V3.3621C36.2515 2.9361 36.4795 2.7441 36.8095 2.7441C37.0975 2.7441 37.3315 2.9181 37.3315 3.2901V5.00009H38.2315V3.1581C38.2315 2.34811 37.7155 1.91611 37.1095 1.91611Z" fill="white"/>
<path d="M39.6535 3.8601H41.7835C41.8075 3.7461 41.8195 3.6261 41.8195 3.5001C41.8195 2.5941 41.1715 1.91611 40.2955 1.91611C39.3475 1.91611 38.6995 2.6061 38.6995 3.5001C38.6995 4.39409 39.3355 5.08409 40.3615 5.08409C40.9315 5.08409 41.3755 4.87409 41.6695 4.46609L40.9495 4.05209C40.8295 4.18409 40.6195 4.28009 40.3735 4.28009C40.0435 4.28009 39.7675 4.17209 39.6535 3.8601ZM39.6355 3.1881C39.7195 2.8821 39.9475 2.7141 40.2895 2.7141C40.5595 2.7141 40.8295 2.8401 40.9255 3.1881H39.6355Z" fill="white"/>
<path d="M5.05 16H6.8L4.42 9.00006H2.38L0 16H1.75L2.1 14.9H4.7L5.05 16ZM2.58 13.4L3.4 10.83L4.22 13.4H2.58Z" fill="white"/>
<path d="M10.3369 10.86C9.66687 10.86 9.17688 11.09 8.84688 11.47V11H7.34688V18H8.84688V15.53C9.17688 15.91 9.66687 16.14 10.3369 16.14C11.6469 16.14 12.7269 14.99 12.7269 13.5C12.7269 12.01 11.6469 10.86 10.3369 10.86ZM10.0369 14.72C9.34688 14.72 8.84688 14.25 8.84688 13.5C8.84688 12.75 9.34688 12.28 10.0369 12.28C10.7269 12.28 11.2269 12.75 11.2269 13.5C11.2269 14.25 10.7269 14.72 10.0369 14.72Z" fill="white"/>
<path d="M16.5673 10.86C15.8973 10.86 15.4073 11.09 15.0773 11.47V11H13.5773V18H15.0773V15.53C15.4073 15.91 15.8973 16.14 16.5673 16.14C17.8773 16.14 18.9573 14.99 18.9573 13.5C18.9573 12.01 17.8773 10.86 16.5673 10.86ZM16.2673 14.72C15.5773 14.72 15.0773 14.25 15.0773 13.5C15.0773 12.75 15.5773 12.28 16.2673 12.28C16.9573 12.28 17.4573 12.75 17.4573 13.5C17.4573 14.25 16.9573 14.72 16.2673 14.72Z" fill="white"/>
<path d="M19.8078 16H21.3078V8.70006H19.8078V16Z" fill="white"/>
<path d="M23.7455 14.1H27.2955C27.3355 13.91 27.3555 13.71 27.3555 13.5C27.3555 11.99 26.2755 10.86 24.8155 10.86C23.2355 10.86 22.1555 12.01 22.1555 13.5C22.1555 14.99 23.2155 16.14 24.9255 16.14C25.8755 16.14 26.6155 15.79 27.1055 15.11L25.9055 14.42C25.7055 14.64 25.3555 14.8 24.9455 14.8C24.3955 14.8 23.9355 14.62 23.7455 14.1ZM23.7155 12.98C23.8555 12.47 24.2355 12.19 24.8055 12.19C25.2555 12.19 25.7055 12.4 25.8655 12.98H23.7155Z" fill="white"/>
<path d="M33.2062 16.14C34.7262 16.14 35.8063 15.34 35.8063 13.99C35.8063 12.51 34.6163 12.14 33.5563 11.82C32.4663 11.49 32.2962 11.27 32.2962 10.95C32.2962 10.67 32.5462 10.4201 33.0462 10.4201C33.6862 10.4201 34.0162 10.73 34.2562 11.23L35.6063 10.4401C35.0963 9.41006 34.1962 8.86006 33.0462 8.86006C31.8362 8.86006 30.6963 9.64006 30.6963 10.99C30.6963 12.33 31.7162 12.83 32.7562 13.12C33.8062 13.41 34.2062 13.58 34.2062 14.01C34.2062 14.28 34.0162 14.58 33.2562 14.58C32.4662 14.58 32.0362 14.19 31.7862 13.61L30.4062 14.41C30.7963 15.44 31.7362 16.14 33.2062 16.14Z" fill="white"/>
<path d="M39.3394 12.44V11H38.3094V9.60006L36.8094 10.0501V11H36.0094V12.44H36.8094V14.21C36.8094 15.61 37.3794 16.2 39.3394 16V14.64C38.6794 14.68 38.3094 14.64 38.3094 14.21V12.44H39.3394Z" fill="white"/>
<path d="M42.491 16.14C43.961 16.14 45.141 14.99 45.141 13.5C45.141 12.01 43.961 10.86 42.491 10.86C41.021 10.86 39.841 12.01 39.841 13.5C39.841 14.99 41.021 16.14 42.491 16.14ZM42.491 14.68C41.841 14.68 41.341 14.21 41.341 13.5C41.341 12.79 41.841 12.32 42.491 12.32C43.141 12.32 43.641 12.79 43.641 13.5C43.641 14.21 43.141 14.68 42.491 14.68Z" fill="white"/>
<path d="M47.4895 11.89V11H45.9895V16H47.4895V13.74C47.4895 12.75 48.3695 12.5 48.9895 12.6V10.9C48.3595 10.9 47.6895 11.22 47.4895 11.89Z" fill="white"/>
<path d="M50.8841 14.1H54.4341C54.4741 13.91 54.4941 13.71 54.4941 13.5C54.4941 11.99 53.4141 10.86 51.9541 10.86C50.3741 10.86 49.2941 12.01 49.2941 13.5C49.2941 14.99 50.3541 16.14 52.0641 16.14C53.0141 16.14 53.7541 15.79 54.2441 15.11L53.0441 14.42C52.8441 14.64 52.4941 14.8 52.0841 14.8C51.5341 14.8 51.0741 14.62 50.8841 14.1ZM50.8541 12.98C50.9941 12.47 51.3741 12.19 51.9441 12.19C52.3941 12.19 52.8441 12.4 53.0041 12.98H50.8541Z" fill="white"/>
</svg>
