<svg width="14" height="16" viewBox="0 0 14 16" fill="none" xmlns="http://www.w3.org/2000/svg">
<path d="M4.78924 16C2.40797 15.9863 0.438232 11.1252 0.438232 8.6496C0.438232 4.60567 3.47181 3.72035 4.64093 3.72035C5.16781 3.72035 5.7304 3.92726 6.22661 4.11035C6.57361 4.23807 6.93249 4.36992 7.13208 4.36992C7.25155 4.36992 7.53308 4.25776 7.78164 4.15935C8.31173 3.94832 8.97135 3.68604 9.73947 3.68604C9.74085 3.68604 9.74269 3.68604 9.74403 3.68604C10.3176 3.68604 12.0566 3.81191 13.1022 5.38206L13.3471 5.75009L12.9946 6.01606C12.4911 6.39601 11.5723 7.08908 11.5723 8.46194C11.5723 10.0879 12.6128 10.7132 13.1127 11.014C13.3334 11.1468 13.5618 11.2836 13.5618 11.583C13.5618 11.7785 12.0017 15.9757 9.73625 15.9757C9.18191 15.9757 8.79007 15.8091 8.44445 15.6622C8.09473 15.5134 7.79304 15.3852 7.29455 15.3852C7.04186 15.3852 6.72233 15.5047 6.38405 15.6315C5.92177 15.8041 5.39852 16 4.80481 16H4.78924Z" fill="white"/>
<path d="M9.97954 0C10.0385 2.12728 8.51713 3.60309 6.9975 3.51053C6.74709 1.81289 8.51694 0 9.97954 0Z" fill="white"/>
</svg>
