<svg width="54" height="16" viewBox="0 0 54 16" fill="none" xmlns="http://www.w3.org/2000/svg">
<path d="M6.02399 2.88005H3.21599V4.00004H4.71199C4.51199 4.53603 4.02399 4.86403 3.27999 4.86403C2.19199 4.86403 1.51999 4.16803 1.51999 3.21605C1.51999 2.23206 2.22399 1.53607 3.16799 1.53607C3.79999 1.53607 4.30399 1.82407 4.53599 2.19206L5.62399 1.56807C5.15199 0.816079 4.24799 0.288086 3.17599 0.288086C1.52799 0.288086 0.23999 1.58407 0.23999 3.20805C0.23999 4.81603 1.50399 6.11201 3.26399 6.11201C4.83199 6.11201 6.02399 5.07202 6.02399 3.36005V2.88005Z" fill="white"/>
<path d="M7.62561 4.76803V3.77604H9.62561V2.56006H7.62561V1.63207H9.82561V0.400084H6.34561V6.00001H9.86561V4.76803H7.62561Z" fill="white"/>
<path d="M13.9478 0.400084H9.7878V1.63207H11.2278V6.00001H12.5078V1.63207H13.9478V0.400084Z" fill="white"/>
<path d="M15.7081 0.400084V6.00001H16.9881V0.400084H15.7081Z" fill="white"/>
<path d="M21.3103 0.400084H17.1503V1.63207H18.5903V6.00001H19.8703V1.63207H21.3103V0.400084Z" fill="white"/>
<path d="M25.7426 6.11201C27.3506 6.11201 28.6546 4.84803 28.6546 3.20005C28.6546 1.55207 27.3506 0.288086 25.7426 0.288086C24.1346 0.288086 22.8306 1.55207 22.8306 3.20005C22.8306 4.84803 24.1346 6.11201 25.7426 6.11201ZM25.7426 4.86403C24.8306 4.86403 24.1106 4.20003 24.1106 3.20005C24.1106 2.20006 24.8306 1.53607 25.7426 1.53607C26.6546 1.53607 27.3746 2.20006 27.3746 3.20005C27.3746 4.20003 26.6546 4.86403 25.7426 4.86403Z" fill="white"/>
<path d="M32.0953 0.400084V3.44004L29.9353 0.400084H28.9753V6.00001H30.2553V2.96005L32.4153 6.00001H33.3753V0.400084H32.0953Z" fill="white"/>
<path d="M6.02399 12.3919V12.6079C6.02399 13.3066 5.77599 13.8959 5.27999 14.3759C4.78399 14.8506 4.13066 15.0879 3.31999 15.0879C2.46666 15.0879 1.76266 14.8106 1.20799 14.2559C0.653324 13.6959 0.37599 13.0106 0.37599 12.1999C0.37599 11.3893 0.650657 10.7066 1.19999 10.152C1.74932 9.59196 2.44532 9.31197 3.28799 9.31197C3.79999 9.31197 4.26932 9.43463 4.69599 9.67996C5.12799 9.92529 5.46132 10.2533 5.69599 10.6639L5.31999 10.8879C5.13332 10.536 4.85599 10.2533 4.48799 10.04C4.12532 9.82663 3.72532 9.71996 3.28799 9.71996C2.56266 9.71996 1.96532 9.95996 1.49599 10.44C1.03199 10.9146 0.79999 11.5013 0.79999 12.1999C0.79999 12.8986 1.03466 13.4879 1.50399 13.9679C1.97332 14.4426 2.57866 14.6799 3.31999 14.6799C3.97599 14.6799 4.50666 14.5012 4.91199 14.1439C5.31732 13.7866 5.54399 13.3359 5.59199 12.7919H3.21599V12.3919H6.02399Z" fill="white"/>
<path d="M11.7026 14.2479C11.1426 14.8079 10.4599 15.0879 9.65461 15.0879C8.84928 15.0879 8.16661 14.8079 7.60661 14.2479C7.04661 13.6826 6.76661 12.9999 6.76661 12.1999C6.76661 11.3999 7.04661 10.7199 7.60661 10.16C8.16661 9.59463 8.84928 9.31197 9.65461 9.31197C10.4599 9.31197 11.1426 9.59463 11.7026 10.16C12.2626 10.7199 12.5426 11.3999 12.5426 12.1999C12.5426 12.9999 12.2626 13.6826 11.7026 14.2479ZM7.90261 13.9599C8.38261 14.4399 8.96661 14.6799 9.65461 14.6799C10.3426 14.6799 10.9239 14.4399 11.3986 13.9599C11.8786 13.4746 12.1186 12.8879 12.1186 12.1999C12.1186 11.5119 11.8786 10.9279 11.3986 10.448C10.9239 9.96262 10.3426 9.71996 9.65461 9.71996C8.96661 9.71996 8.38261 9.96262 7.90261 10.448C7.42795 10.9279 7.19061 11.5119 7.19061 12.1999C7.19061 12.8879 7.42795 13.4746 7.90261 13.9599Z" fill="white"/>
<path d="M18.2339 14.2479C17.6739 14.8079 16.9912 15.0879 16.1859 15.0879C15.3805 15.0879 14.6979 14.8079 14.1379 14.2479C13.5779 13.6826 13.2979 12.9999 13.2979 12.1999C13.2979 11.3999 13.5779 10.7199 14.1379 10.16C14.6979 9.59463 15.3805 9.31197 16.1859 9.31197C16.9912 9.31197 17.6739 9.59463 18.2339 10.16C18.7939 10.7199 19.0739 11.3999 19.0739 12.1999C19.0739 12.9999 18.7939 13.6826 18.2339 14.2479ZM14.4339 13.9599C14.9139 14.4399 15.4979 14.6799 16.1859 14.6799C16.8739 14.6799 17.4552 14.4399 17.9299 13.9599C18.4099 13.4746 18.6499 12.8879 18.6499 12.1999C18.6499 11.5119 18.4099 10.9279 17.9299 10.448C17.4552 9.96262 16.8739 9.71996 16.1859 9.71996C15.4979 9.71996 14.9139 9.96262 14.4339 10.448C13.9592 10.9279 13.7219 11.5119 13.7219 12.1999C13.7219 12.8879 13.9592 13.4746 14.4339 13.9599Z" fill="white"/>
<path d="M25.4771 12.3919V12.6079C25.4771 13.3066 25.2291 13.8959 24.7331 14.3759C24.2371 14.8506 23.5838 15.0879 22.7731 15.0879C21.9198 15.0879 21.2158 14.8106 20.6611 14.2559C20.1064 13.6959 19.8291 13.0106 19.8291 12.1999C19.8291 11.3893 20.1038 10.7066 20.6531 10.152C21.2024 9.59196 21.8984 9.31197 22.7411 9.31197C23.2531 9.31197 23.7224 9.43463 24.1491 9.67996C24.5811 9.92529 24.9144 10.2533 25.1491 10.6639L24.7731 10.8879C24.5864 10.536 24.3091 10.2533 23.9411 10.04C23.5784 9.82663 23.1784 9.71996 22.7411 9.71996C22.0158 9.71996 21.4184 9.95996 20.9491 10.44C20.4851 10.9146 20.2531 11.5013 20.2531 12.1999C20.2531 12.8986 20.4878 13.4879 20.9571 13.9679C21.4264 14.4426 22.0318 14.6799 22.7731 14.6799C23.4291 14.6799 23.9598 14.5012 24.3651 14.1439C24.7704 13.7866 24.9971 13.3359 25.0451 12.7919H22.6691V12.3919H25.4771Z" fill="white"/>
<path d="M26.9637 14.5999H29.6037V14.9999H26.5397V9.39996H26.9637V14.5999Z" fill="white"/>
<path d="M30.909 14.5999H33.709V14.9999H30.485V9.39996H33.669V9.79996H30.909V11.9759H33.469V12.3759H30.909V14.5999Z" fill="white"/>
<path d="M38.7875 9.39996C39.2888 9.39996 39.7048 9.5653 40.0355 9.89596C40.3662 10.2266 40.5315 10.6399 40.5315 11.1359C40.5315 11.6319 40.3662 12.0453 40.0355 12.3759C39.7048 12.7013 39.2888 12.8639 38.7875 12.8639H37.3075V14.9999H36.8835V9.39996H38.7875ZM38.7875 12.4639C39.1715 12.4639 39.4862 12.3386 39.7315 12.0879C39.9822 11.8373 40.1075 11.5199 40.1075 11.1359C40.1075 10.7466 39.9822 10.4266 39.7315 10.176C39.4862 9.92529 39.1715 9.79996 38.7875 9.79996H37.3075V12.4639H38.7875Z" fill="white"/>
<path d="M42.0028 14.5999H44.6428V14.9999H41.5788V9.39996H42.0028V14.5999Z" fill="white"/>
<path d="M49.4484 14.9999L48.9044 13.5759H46.0964L45.5524 14.9999H45.1044L47.2804 9.39996H47.7284L49.8964 14.9999H49.4484ZM46.2564 13.1759H48.7524L47.5044 9.91996L46.2564 13.1759Z" fill="white"/>
<path d="M53.8809 9.39996L51.8409 12.6959V14.9999H51.4169V12.6959L49.3769 9.39996H49.8569L51.6329 12.2879L53.4009 9.39996H53.8809Z" fill="white"/>
</svg>
